<svg width="84" height="65" viewBox="0 0 84 65" fill="none" xmlns="http://www.w3.org/2000/svg">
<path d="M8.32203 41.519C8.32203 41.519 11.3144 53.5532 23.117 59.3252C34.9196 65.0971 48.9926 62.4803 60.4529 60.6586C71.9133 58.8369 79.2065 50.4336 78.4281 40.4172C77.6497 30.4009 68.4117 29.5265 61.3523 19.5498C54.2929 9.57314 53.9319 5.83162 42.5717 1.30131C31.2115 -3.229 16.6064 4.48359 10.9722 18.0077C5.338 31.5319 8.32203 41.519 8.32203 41.519Z" fill="#ADB3BC"/>
<path opacity="0.7" d="M8.32203 41.519C8.32203 41.519 11.3144 53.5532 23.117 59.3252C34.9196 65.0971 48.9926 62.4803 60.4529 60.6586C71.9133 58.8369 79.2065 50.4336 78.4281 40.4172C77.6497 30.4009 68.4117 29.5265 61.3523 19.5498C54.2929 9.57314 53.9319 5.83162 42.5717 1.30131C31.2115 -3.229 16.6064 4.48359 10.9722 18.0077C5.338 31.5319 8.32203 41.519 8.32203 41.519Z" fill="#ADB3BC"/>
<path d="M76.8795 53.2736C76.1241 54.2188 75.7548 54.7447 75.5962 54.9826C75.7936 53.9437 76.0819 52.9243 76.458 51.936C76.7406 51.17 76.9168 50.3688 76.9817 49.555L76.9129 49.5925L76.8461 49.4673C76.8732 49.4548 79.4462 48.088 80.1745 46.8005L80.2955 46.8694C79.6382 48.0338 77.6078 49.2107 77.0506 49.5174C77.5786 49.4673 79.2271 49.2148 80.2079 48.0045C81.3848 46.5438 81.1782 44.7471 81.1782 44.7471C81.1782 44.7471 78.96 46.2705 78.0585 47.4495C77.6415 47.9889 77.2912 48.5768 77.0151 49.2002C77.0553 48.2399 76.9818 47.2782 76.796 46.3351C77.5389 45.7613 80.2517 43.5139 80.5543 41.8382C80.9007 39.8976 80.4144 36.5692 80.4144 36.5692C80.1352 37.2602 79.8111 37.9322 79.4441 38.5808C78.8181 39.6889 76.8795 41.423 76.5331 43.2948C76.4455 43.7628 76.3995 44.2376 76.3954 44.7138C76.0829 43.6696 75.7094 42.6446 75.2769 41.6442C75.1619 41.3739 75.069 41.0948 74.9993 40.8095L74.9388 40.774C74.9514 40.7531 76.1909 38.6455 76.1909 38.0404H76.3328C76.3328 38.6059 75.3791 40.2836 75.1162 40.7343C75.5523 40.4735 76.2618 39.9351 76.5289 39.1004C76.7555 38.3176 76.688 37.4789 76.339 36.7424C76.339 36.7424 75.2852 38.2908 74.9973 39.282C74.8618 39.734 74.7806 40.2005 74.7552 40.6717C74.5367 40.077 74.2459 39.5114 73.8892 38.9877C73.449 38.3423 73.0981 37.6404 72.8458 36.901C72.8458 36.901 72.0842 38.2198 72.6372 39.6138C73.0942 40.7531 74.39 41.1893 74.8387 41.3103C74.8888 41.4605 74.943 41.6087 75.0035 41.7485C75.6115 43.1227 76.0873 44.5516 76.4246 46.0159C75.9932 45.4155 75.4853 44.8739 74.9138 44.4049C74.3074 43.9159 73.7697 43.3474 73.3154 42.7147C73.3154 42.7147 72.9669 44.1962 73.8996 45.3627C74.6634 46.3164 76.0198 46.3623 76.4914 46.3477C76.8127 48.0275 76.8482 49.7804 76.3056 51.4727C76.2702 51.1451 76.0719 50.2499 74.9827 49.2482C73.6096 47.9858 70.8572 43.9437 70.8572 43.9437C70.8572 43.9437 71.0784 48.714 72.3951 50.2833C73.6033 51.7189 75.8841 51.6355 76.2577 51.6125C76.2326 51.6855 76.2076 51.7607 76.1804 51.8358C75.3124 54.1667 75.1371 55.8006 75.1079 56.6687H73.4698V64.2248H77.9771V56.6749H75.4063C75.4236 56.1817 75.4745 55.6901 75.5586 55.2038L75.5106 55.2184L75.473 55.0807C75.5023 55.0807 78.3256 54.2773 80.2997 52.2469L80.3998 52.347C78.8076 53.9851 76.6729 54.8282 75.8528 55.1078C76.6667 55.0076 78.6574 54.7071 79.5839 54.1103C80.7608 53.3466 81.8021 51.0595 81.8021 51.0595C81.8021 51.0595 77.9896 51.8921 76.8795 53.2736ZM74.7343 40.9952C74.2728 40.7505 73.8713 40.4065 73.5588 39.9879C73.2463 39.5693 73.0306 39.0866 72.9272 38.5746L73.0649 38.5474C73.164 39.0374 73.3703 39.4994 73.669 39.9003C73.9677 40.3011 74.3515 40.6308 74.7928 40.8658L74.7343 40.9952ZM76.7293 46.379L76.698 46.427L76.6458 46.4061C76.5665 46.3748 74.7218 45.6152 73.9706 44.5176L74.0874 44.4383C74.7448 45.3982 76.3328 46.1181 76.6437 46.2538C76.8837 45.8865 78.382 43.5619 78.9036 42.0991L79.0372 42.1471C78.4675 43.7497 76.748 46.3581 76.7293 46.3873V46.379ZM76.0782 51.5583C76.0552 51.5583 73.8579 50.7236 72.8792 48.8246L73.0044 48.7599C73.9581 50.6109 76.1053 51.4184 76.1345 51.4268L76.0782 51.5583Z" fill="#263238"/>
<path d="M64.5656 27.3772H32.0583V64.2311H64.5656V27.3772Z" stroke="#263238" stroke-width="0.208674" stroke-miterlimit="10"/>
<path d="M61.8069 30.5052H32.0583V64.2311H61.8069V30.5052Z" stroke="#263238" stroke-width="0.208674" stroke-miterlimit="10"/>
<path d="M61.8093 30.5052L64.568 27.3772V64.2311H61.8093V30.5052Z" fill="#263238"/>
<path d="M64.5677 57.443H63.2239V64.2332H64.5677V57.443Z" fill="white" stroke="#263238" stroke-width="0.208674" stroke-linecap="round" stroke-linejoin="round"/>
<path d="M70.4042 64.2312V52.7374L64.5676 57.443V64.2312H70.4042Z" fill="#263238" stroke="#263238" stroke-width="0.208674" stroke-linecap="round" stroke-linejoin="round"/>
<path d="M18.8766 57.443H17.5327V64.2332H18.8766V57.443Z" fill="white" stroke="#263238" stroke-width="0.208674" stroke-linecap="round" stroke-linejoin="round"/>
<path d="M24.7133 64.2312V52.7374L18.8767 57.443V64.2312H24.7133Z" fill="#263238" stroke="#263238" stroke-width="0.208674" stroke-linecap="round" stroke-linejoin="round"/>
<path d="M66.1873 58.645H12.3578L12.3369 58.2047L74.6991 51.6565V52.101L66.1873 58.645Z" fill="white" stroke="#263238" stroke-width="0.208674" stroke-linecap="round" stroke-linejoin="round"/>
<path d="M66.1874 58.2005H12.3579L25.9384 51.6565H74.6992L66.1874 58.2005Z" fill="white" stroke="#263238" stroke-width="0.208674" stroke-linecap="round" stroke-linejoin="round"/>
<path d="M63.0508 57.0966H57.3499L60.6406 54.4631H66.6442L63.0508 57.0966Z" fill="#858585" stroke="#263238" stroke-width="0.208674" stroke-linecap="round" stroke-linejoin="round"/>
<path d="M66.187 58.645V58.2005L74.6988 51.6565V52.101L66.187 58.645Z" fill="#263238" stroke="#263238" stroke-width="0.208674" stroke-linecap="round" stroke-linejoin="round"/>
<path d="M59.0945 51.961H68.9168C68.9168 51.961 70.3775 51.8254 70.0999 52.5537C69.8224 53.2819 68.5537 53.3258 65.7345 53.4176C62.9153 53.5094 62.187 55.2351 62.187 55.2351" stroke="#263238" stroke-width="0.208674" stroke-linecap="round" stroke-linejoin="round"/>
<path d="M62.9319 54.655C62.9319 54.655 62.0054 54.4901 61.3501 54.8178C60.9328 55.0264 60.5718 55.7464 60.3547 56.2555C60.3302 56.3131 60.3203 56.3758 60.326 56.438C60.3317 56.5003 60.3528 56.5602 60.3873 56.6123C60.4219 56.6645 60.4688 56.7072 60.524 56.7367C60.5791 56.7662 60.6407 56.7816 60.7032 56.7814H61.9448C61.998 56.7815 62.0505 56.7704 62.099 56.7488C62.1476 56.7273 62.191 56.6957 62.2265 56.6562L63.4786 55.2539C63.4786 55.2539 63.4306 54.7093 62.9319 54.655Z" fill="#263238"/>
<path d="M62.1597 56.4038C62.1388 56.1257 62.2011 55.8477 62.3385 55.605C62.476 55.3624 62.6825 55.1661 62.9318 55.0411" stroke="white" stroke-width="0.104337" stroke-linecap="round" stroke-linejoin="round"/>
<path d="M55.5596 57.4658H35.5332L40.4036 53.5782H60.4301L55.5596 57.4658Z" fill="white" stroke="#263238" stroke-width="0.208674" stroke-linecap="round" stroke-linejoin="round"/>
<path d="M60.4298 53.8224V53.5782L55.5593 57.4658V57.71L60.4298 53.8224Z" stroke="#263238" stroke-width="0.208674" stroke-linecap="round" stroke-linejoin="round"/>
<path d="M55.5596 57.4658H35.5332V57.71H55.5596V57.4658Z" fill="white" stroke="#263238" stroke-width="0.208674" stroke-linecap="round" stroke-linejoin="round"/>
<path d="M42.0624 55.7882L41.4197 56.3078H42.7406L43.3854 55.7882H42.0624Z" stroke="#263238" stroke-width="0.208674" stroke-linecap="round" stroke-linejoin="round"/>
<path d="M43.3855 55.7882L42.7407 56.3078H44.0637L44.7064 55.7882H43.3855Z" stroke="#263238" stroke-width="0.208674" stroke-linecap="round" stroke-linejoin="round"/>
<path d="M40.7394 55.7882L40.0967 56.3078H41.4197L42.0624 55.7882H40.7394Z" stroke="#263238" stroke-width="0.208674" stroke-linecap="round" stroke-linejoin="round"/>
<path d="M42.7052 55.2686H41.3843L40.7395 55.7882H42.0625L42.7052 55.2686Z" stroke="#263238" stroke-width="0.208674" stroke-linecap="round" stroke-linejoin="round"/>
<path d="M44.0281 55.2685L44.6729 54.7489H43.3499L42.7051 55.2685H44.0281Z" stroke="#263238" stroke-width="0.208674" stroke-linecap="round" stroke-linejoin="round"/>
<path d="M43.35 54.7489H42.027L41.3843 55.2685H42.7052L43.35 54.7489Z" stroke="#263238" stroke-width="0.208674" stroke-linecap="round" stroke-linejoin="round"/>
<path d="M44.7062 55.7882L44.0635 56.3078H45.3865L46.0292 55.7882H44.7062Z" stroke="#263238" stroke-width="0.208674" stroke-linecap="round" stroke-linejoin="round"/>
<path d="M51.3194 55.7882L50.6746 56.3078H51.9976L52.6424 55.7882H51.3194Z" stroke="#263238" stroke-width="0.208674" stroke-linecap="round" stroke-linejoin="round"/>
<path d="M45.3511 55.2685L45.9938 54.7489H44.6729L44.0281 55.2685H45.3511Z" stroke="#263238" stroke-width="0.208674" stroke-linecap="round" stroke-linejoin="round"/>
<path d="M46.0292 55.7882L45.3865 56.3078H46.7074L47.3522 55.7882H46.0292Z" stroke="#263238" stroke-width="0.208674" stroke-linecap="round" stroke-linejoin="round"/>
<path d="M53.3203 56.3078H54.6412L55.286 55.7882H53.963L53.3203 56.3078Z" stroke="#263238" stroke-width="0.208674" stroke-linecap="round" stroke-linejoin="round"/>
<path d="M53.9631 55.7882H55.2861L55.9288 55.2686H54.6079L53.9631 55.7882Z" stroke="#263238" stroke-width="0.208674" stroke-linecap="round" stroke-linejoin="round"/>
<path d="M52.6421 55.7882L51.9973 56.3078H53.3203L53.963 55.7882H52.6421Z" stroke="#263238" stroke-width="0.208674" stroke-linecap="round" stroke-linejoin="round"/>
<path d="M49.9962 55.7882L49.3535 56.3078H50.6744L51.3192 55.7882H49.9962Z" stroke="#263238" stroke-width="0.208674" stroke-linecap="round" stroke-linejoin="round"/>
<path d="M47.3523 55.7882L46.7075 56.3078H48.0305L48.6753 55.7882H47.3523Z" stroke="#263238" stroke-width="0.208674" stroke-linecap="round" stroke-linejoin="round"/>
<path d="M48.6753 55.7882L48.0305 56.3078H49.3535L49.9962 55.7882H48.6753Z" stroke="#263238" stroke-width="0.208674" stroke-linecap="round" stroke-linejoin="round"/>
<path d="M50.639 55.2685L51.2838 54.7489H49.9608L49.3181 55.2685H50.639Z" stroke="#263238" stroke-width="0.208674" stroke-linecap="round" stroke-linejoin="round"/>
<path d="M51.962 55.2686L51.3193 55.7882H52.6423L53.285 55.2686H51.962Z" stroke="#263238" stroke-width="0.208674" stroke-linecap="round" stroke-linejoin="round"/>
<path d="M49.318 55.2686L48.6753 55.7882H49.9962L50.6389 55.2686H49.318Z" stroke="#263238" stroke-width="0.208674" stroke-linecap="round" stroke-linejoin="round"/>
<path d="M46.6741 55.2686L46.0293 55.7882H47.3523L47.995 55.2686H46.6741Z" stroke="#263238" stroke-width="0.208674" stroke-linecap="round" stroke-linejoin="round"/>
<path d="M50.6388 55.2686L49.9961 55.7882H51.3191L51.9618 55.2686H50.6388Z" stroke="#263238" stroke-width="0.208674" stroke-linecap="round" stroke-linejoin="round"/>
<path d="M46.6741 55.2685L47.3168 54.7489H45.9938L45.3511 55.2685H46.6741Z" stroke="#263238" stroke-width="0.208674" stroke-linecap="round" stroke-linejoin="round"/>
<path d="M42.705 55.2686L42.0623 55.7882H43.3852L44.028 55.2686H42.705Z" stroke="#263238" stroke-width="0.208674" stroke-linecap="round" stroke-linejoin="round"/>
<path d="M45.3511 55.2686L44.7063 55.7882H46.0293L46.6741 55.2686H45.3511Z" stroke="#263238" stroke-width="0.208674" stroke-linecap="round" stroke-linejoin="round"/>
<path d="M44.0282 55.2686L43.3855 55.7882H44.7064L45.3512 55.2686H44.0282Z" stroke="#263238" stroke-width="0.208674" stroke-linecap="round" stroke-linejoin="round"/>
<path d="M47.995 55.2686L47.3523 55.7882H48.6753L49.318 55.2686H47.995Z" stroke="#263238" stroke-width="0.208674" stroke-linecap="round" stroke-linejoin="round"/>
<path d="M49.3181 55.2685L49.9608 54.7489H48.6399L47.9951 55.2685H49.3181Z" stroke="#263238" stroke-width="0.208674" stroke-linecap="round" stroke-linejoin="round"/>
<path d="M54.6079 55.2685H55.9288L56.5736 54.7489H55.2506L54.6079 55.2685Z" stroke="#263238" stroke-width="0.208674" stroke-linecap="round" stroke-linejoin="round"/>
<path d="M47.995 55.2685L48.6398 54.7489H47.3168L46.6741 55.2685H47.995Z" stroke="#263238" stroke-width="0.208674" stroke-linecap="round" stroke-linejoin="round"/>
<path d="M53.2849 55.2685L53.9276 54.7489H52.6067L51.9619 55.2685H53.2849Z" stroke="#263238" stroke-width="0.208674" stroke-linecap="round" stroke-linejoin="round"/>
<path d="M54.6079 55.2685L55.2506 54.7489H53.9276L53.2849 55.2685H54.6079Z" stroke="#263238" stroke-width="0.208674" stroke-linecap="round" stroke-linejoin="round"/>
<path d="M52.6421 55.7882H53.963L54.6078 55.2686H53.2848L52.6421 55.7882Z" stroke="#263238" stroke-width="0.208674" stroke-linecap="round" stroke-linejoin="round"/>
<path d="M51.9619 55.2685L52.6067 54.7489H51.2837L50.6389 55.2685H51.9619Z" stroke="#263238" stroke-width="0.208674" stroke-linecap="round" stroke-linejoin="round"/>
<path d="M48.0304 56.3077L47.3877 56.8253H48.7086L49.3534 56.3077H48.0304Z" stroke="#263238" stroke-width="0.208674" stroke-linecap="round" stroke-linejoin="round"/>
<path d="M49.3535 56.3077L48.7087 56.8253H50.0317L50.6744 56.3077H49.3535Z" stroke="#263238" stroke-width="0.208674" stroke-linecap="round" stroke-linejoin="round"/>
<path d="M46.7074 56.3077L46.0647 56.8253H47.3877L48.0304 56.3077H46.7074Z" stroke="#263238" stroke-width="0.208674" stroke-linecap="round" stroke-linejoin="round"/>
<path d="M50.6745 56.3077L50.0317 56.8253H51.3547L51.9974 56.3077H50.6745Z" stroke="#263238" stroke-width="0.208674" stroke-linecap="round" stroke-linejoin="round"/>
<path d="M45.3865 56.3077L44.7417 56.8253H46.0647L46.7074 56.3077H45.3865Z" stroke="#263238" stroke-width="0.208674" stroke-linecap="round" stroke-linejoin="round"/>
<path d="M44.0636 56.3077L43.4209 56.8253H44.7418L45.3866 56.3077H44.0636Z" stroke="#263238" stroke-width="0.208674" stroke-linecap="round" stroke-linejoin="round"/>
<path d="M51.9975 56.3077L51.3547 56.8253H52.6756L53.3204 56.3077H51.9975Z" stroke="#263238" stroke-width="0.208674" stroke-linecap="round" stroke-linejoin="round"/>
<path d="M41.4197 56.3077L40.7749 56.8253H42.0979L42.7406 56.3077H41.4197Z" stroke="#263238" stroke-width="0.208674" stroke-linecap="round" stroke-linejoin="round"/>
<path d="M42.7406 56.3077L42.0979 56.8253H43.4209L44.0636 56.3077H42.7406Z" stroke="#263238" stroke-width="0.208674" stroke-linecap="round" stroke-linejoin="round"/>
<path d="M55.2859 55.7882H56.6089L57.2516 55.2686H55.9286L55.2859 55.7882Z" stroke="#263238" stroke-width="0.208674" stroke-linecap="round" stroke-linejoin="round"/>
<path d="M57.2162 54.2294L56.5735 54.749H57.8944L58.5392 54.2294H57.2162Z" stroke="#263238" stroke-width="0.208674" stroke-linecap="round" stroke-linejoin="round"/>
<path d="M55.9287 55.2685H57.2517L57.8944 54.7489H56.5735L55.9287 55.2685Z" stroke="#263238" stroke-width="0.208674" stroke-linecap="round" stroke-linejoin="round"/>
<path d="M40.0966 56.3077L39.4539 56.8253H40.7748L41.4196 56.3077H40.0966Z" stroke="#263238" stroke-width="0.208674" stroke-linecap="round" stroke-linejoin="round"/>
<path d="M53.3203 56.3077L52.6755 56.8253H53.9985L54.6412 56.3077H53.3203Z" stroke="#263238" stroke-width="0.208674" stroke-linecap="round" stroke-linejoin="round"/>
<path d="M53.9985 56.8253H55.3215L55.9642 56.3077H54.6412L53.9985 56.8253Z" stroke="#263238" stroke-width="0.208674" stroke-linecap="round" stroke-linejoin="round"/>
<path d="M54.6411 56.3078H55.9641L56.6089 55.7882H55.2859L54.6411 56.3078Z" stroke="#263238" stroke-width="0.208674" stroke-linecap="round" stroke-linejoin="round"/>
<path d="M41.3842 55.2686H40.0612L39.4185 55.7882H40.7394L41.3842 55.2686Z" stroke="#263238" stroke-width="0.208674" stroke-linecap="round" stroke-linejoin="round"/>
<path d="M49.9606 54.749L50.6054 54.2294H49.2824L48.6396 54.749H49.9606Z" stroke="#263238" stroke-width="0.208674" stroke-linecap="round" stroke-linejoin="round"/>
<path d="M51.2837 54.749L51.9264 54.2294H50.6055L49.9607 54.749H51.2837Z" stroke="#263238" stroke-width="0.208674" stroke-linecap="round" stroke-linejoin="round"/>
<path d="M48.6396 54.749L49.2824 54.2294H47.9594L47.3167 54.749H48.6396Z" stroke="#263238" stroke-width="0.208674" stroke-linecap="round" stroke-linejoin="round"/>
<path d="M52.6067 54.749L53.2494 54.2294H51.9264L51.2837 54.749H52.6067Z" stroke="#263238" stroke-width="0.208674" stroke-linecap="round" stroke-linejoin="round"/>
<path d="M55.2507 54.749L55.8934 54.2294H54.5725L53.9277 54.749H55.2507Z" stroke="#263238" stroke-width="0.208674" stroke-linecap="round" stroke-linejoin="round"/>
<path d="M53.9276 54.749L54.5724 54.2294H53.2494L52.6067 54.749H53.9276Z" stroke="#263238" stroke-width="0.208674" stroke-linecap="round" stroke-linejoin="round"/>
<path d="M47.3169 54.749L47.9596 54.2294H46.6387L45.9939 54.749H47.3169Z" stroke="#263238" stroke-width="0.208674" stroke-linecap="round" stroke-linejoin="round"/>
<path d="M40.7394 55.7882H39.4185L38.7737 56.3078H40.0967L40.7394 55.7882Z" stroke="#263238" stroke-width="0.208674" stroke-linecap="round" stroke-linejoin="round"/>
<path d="M42.027 54.7489H40.704L40.0613 55.2685H41.3843L42.027 54.7489Z" stroke="#263238" stroke-width="0.208674" stroke-linecap="round" stroke-linejoin="round"/>
<path d="M56.5735 54.749L57.2162 54.2294H55.8932L55.2505 54.749H56.5735Z" stroke="#263238" stroke-width="0.208674" stroke-linecap="round" stroke-linejoin="round"/>
<path d="M38.7738 56.3077L38.1311 56.8253H39.4541L40.0968 56.3077H38.7738Z" stroke="#263238" stroke-width="0.208674" stroke-linecap="round" stroke-linejoin="round"/>
<path d="M42.6717 54.2294H41.3487L40.7039 54.749H42.0269L42.6717 54.2294Z" stroke="#263238" stroke-width="0.208674" stroke-linecap="round" stroke-linejoin="round"/>
<path d="M44.6731 54.749L45.3158 54.2294H43.9928L43.3501 54.749H44.6731Z" stroke="#263238" stroke-width="0.208674" stroke-linecap="round" stroke-linejoin="round"/>
<path d="M43.3498 54.749L43.9926 54.2294H42.6717L42.0269 54.749H43.3498Z" stroke="#263238" stroke-width="0.208674" stroke-linecap="round" stroke-linejoin="round"/>
<path d="M45.9938 54.749L46.6386 54.2294H45.3156L44.6729 54.749H45.9938Z" stroke="#263238" stroke-width="0.208674" stroke-linecap="round" stroke-linejoin="round"/>
<path d="M61.1413 53.0649H54.2383C54.2127 53.0665 54.1873 53.059 54.1667 53.0436C54.146 53.0282 54.1316 53.006 54.1258 52.9809C54.12 52.9559 54.1234 52.9296 54.1352 52.9068C54.147 52.8839 54.1665 52.866 54.1903 52.8562L55.6093 52.1718C55.6252 52.1686 55.6415 52.1686 55.6573 52.1718H62.0302C62.0527 52.1725 62.0745 52.18 62.0927 52.1934C62.1108 52.2068 62.1244 52.2254 62.1317 52.2467C62.1389 52.268 62.1395 52.2911 62.1333 52.3127C62.1271 52.3344 62.1144 52.3537 62.097 52.3679L61.208 53.0503C61.1878 53.062 61.1645 53.0671 61.1413 53.0649Z" fill="#263238" stroke="#263238" stroke-width="0.208674" stroke-linecap="round" stroke-linejoin="round"/>
<path d="M59.1152 47.8627H57.8464V52.6976H59.1152V47.8627Z" fill="white" stroke="#263238" stroke-width="0.208674" stroke-linecap="round" stroke-linejoin="round"/>
<path d="M59.3137 47.8627H57.6484V51.3726H59.3137V47.8627Z" fill="#263238" stroke="#263238" stroke-width="0.208674" stroke-linecap="round" stroke-linejoin="round"/>
<path d="M69.2859 31.7781H48.2766V48.2111H69.2859V31.7781Z" fill="white" stroke="#263238" stroke-width="0.208674" stroke-linecap="round" stroke-linejoin="round"/>
<path d="M68.1613 32.6587H49.3994V47.3347H68.1613V32.6587Z" fill="#263238" stroke="#263238" stroke-width="0.208674" stroke-linecap="round" stroke-linejoin="round"/>
<path d="M50.6765 29.1092H43.7757C43.75 29.1109 43.7246 29.1033 43.704 29.0879C43.6834 29.0725 43.6689 29.0503 43.6632 29.0253C43.6574 29.0002 43.6607 28.9739 43.6725 28.9511C43.6844 28.9282 43.7039 28.9103 43.7277 28.9006L45.1467 28.2182C45.1606 28.21 45.1764 28.2057 45.1926 28.2057H51.5676C51.5905 28.2055 51.6129 28.2127 51.6316 28.2261C51.6502 28.2395 51.6641 28.2584 51.6713 28.2802C51.6785 28.302 51.6786 28.3255 51.6716 28.3474C51.6646 28.3692 51.6508 28.3883 51.6323 28.4018L50.7433 29.0863C50.7243 29.1013 50.7007 29.1094 50.6765 29.1092Z" fill="#263238" stroke="#263238" stroke-width="0.208674" stroke-linecap="round" stroke-linejoin="round"/>
<path d="M48.6523 23.8986H47.3835V28.7335H48.6523V23.8986Z" fill="white" stroke="#263238" stroke-width="0.208674" stroke-linecap="round" stroke-linejoin="round"/>
<path d="M48.8526 23.8986H47.1853V27.4085H48.8526V23.8986Z" fill="#263238" stroke="#263238" stroke-width="0.208674" stroke-linecap="round" stroke-linejoin="round"/>
<path d="M58.823 7.81616H37.8137V24.2492H58.823V7.81616Z" fill="white" stroke="#263238" stroke-width="0.208674" stroke-linecap="round" stroke-linejoin="round"/>
<path d="M57.6981 8.6947H38.9363V23.3707H57.6981V8.6947Z" fill="#263238" stroke="#263238" stroke-width="0.208674" stroke-linecap="round" stroke-linejoin="round"/>
<path d="M36.5388 53.065H29.6358C29.6104 53.066 29.5854 53.058 29.5652 53.0425C29.545 53.0269 29.531 53.0048 29.5255 52.9799C29.52 52.955 29.5235 52.929 29.5353 52.9064C29.547 52.8838 29.5664 52.8661 29.5899 52.8563L31.0068 52.1719C31.0227 52.169 31.039 52.169 31.0548 52.1719H37.4277C37.4509 52.1712 37.4736 52.1781 37.4926 52.1913C37.5116 52.2045 37.5258 52.2234 37.5333 52.2454C37.5408 52.2673 37.541 52.291 37.534 52.313C37.5271 52.3351 37.5132 52.3544 37.4945 52.368L36.6056 53.0504C36.5854 53.0623 36.562 53.0674 36.5388 53.065Z" fill="#263238" stroke="#263238" stroke-width="0.208674" stroke-linecap="round" stroke-linejoin="round"/>
<path d="M34.5146 47.8627H33.2458V52.6976H34.5146V47.8627Z" fill="white" stroke="#263238" stroke-width="0.208674" stroke-linecap="round" stroke-linejoin="round"/>
<path d="M34.7149 47.8627H33.0476V51.3726H34.7149V47.8627Z" fill="#263238" stroke="#263238" stroke-width="0.208674" stroke-linecap="round" stroke-linejoin="round"/>
<path d="M44.6834 31.7781H23.6741V48.2111H44.6834V31.7781Z" fill="white" stroke="#263238" stroke-width="0.208674" stroke-linecap="round" stroke-linejoin="round"/>
<path d="M43.5607 32.6587H24.7988V47.3347H43.5607V32.6587Z" fill="#263238" stroke="#263238" stroke-width="0.208674" stroke-linecap="round" stroke-linejoin="round"/>
<path d="M35.7291 27.2603C35.6686 28.0491 35.2929 28.6626 34.8944 28.6313C34.4958 28.6 34.2183 27.9364 34.2788 27.1477C34.3393 26.3589 34.7149 25.7433 35.1135 25.7746C35.5121 25.8059 35.7896 26.4695 35.7291 27.2603Z" stroke="#263238" stroke-width="0.208674" stroke-linecap="round" stroke-linejoin="round"/>
<path d="M35.1259 23.185C35.1259 23.185 35.2052 24.6458 34.9631 25.326C34.7211 26.0063 34.3976 26.457 34.3976 26.7868C34.3976 27.1165 34.9235 27.515 34.9235 28.1598C34.9235 28.8046 33.7528 31.916 33.4294 32.5211C33.1059 33.1263 33.2207 33.3287 32.8242 33.3683C32.4278 33.408 31.4115 32.9259 31.4115 32.9259C31.4115 32.9259 30.8043 33.0052 30.725 33.2473C30.6457 33.4894 30.4412 34.3387 30.4412 34.3387L24.5461 31.7135C25.0866 31.1169 25.4992 30.416 25.7585 29.6539C26.1216 28.4833 25.5499 26.6657 25.5499 26.6657C25.5499 26.6657 24.9844 22.4276 27.5677 21.2152C30.1511 20.0028 33.9073 20.7707 34.5145 21.3779C35.1217 21.9852 35.1259 23.185 35.1259 23.185Z" fill="white"/>
<mask id="mask0_615_2924" style="mask-type:luminance" maskUnits="userSpaceOnUse" x="24" y="20" width="12" height="15">
<path d="M35.1259 23.185C35.1259 23.185 35.2052 24.6458 34.9631 25.326C34.7211 26.0063 34.3976 26.457 34.3976 26.7868C34.3976 27.1165 34.9235 27.515 34.9235 28.1598C34.9235 28.8046 33.7528 31.916 33.4294 32.5211C33.1059 33.1263 33.2207 33.3287 32.8242 33.3683C32.4278 33.408 31.4115 32.9259 31.4115 32.9259C31.4115 32.9259 30.8043 33.0052 30.725 33.2473C30.6457 33.4894 30.4412 34.3387 30.4412 34.3387L24.5461 31.7135C25.0866 31.1169 25.4992 30.416 25.7585 29.6539C26.1216 28.4833 25.5499 26.6657 25.5499 26.6657C25.5499 26.6657 24.9844 22.4276 27.5677 21.2152C30.1511 20.0028 33.9073 20.7707 34.5145 21.3779C35.1217 21.9852 35.1259 23.185 35.1259 23.185Z" fill="white"/>
</mask>
<g mask="url(#mask0_615_2924)">
<path opacity="0.4" d="M31.3573 29.8874C31.4303 28.0094 30.9233 25.6117 30.9233 25.6117C30.9233 25.6117 30.9942 25.0316 29.907 23.2203C29.4652 22.4147 28.9775 21.635 28.4463 20.8853C28.1507 20.9705 27.8619 21.0779 27.5824 21.2066C24.999 22.419 25.5645 26.6572 25.5645 26.6572C25.5645 26.6572 26.13 28.4747 25.7732 29.6454C25.5139 30.4075 25.1013 31.1084 24.5608 31.705L27.9726 33.2408L30.7041 32.8673C30.7041 32.8673 30.846 32.9299 31.0505 33.0134C31.1679 32.9736 31.2888 32.9449 31.4116 32.9278C31.4116 32.9278 32.4194 33.4119 32.8243 33.3702C33.0914 33.0322 31.2843 31.7801 31.3573 29.8874Z" fill="black"/>
<path opacity="0.4" d="M31.8645 23.6565L33.3127 23.5835C33.3127 23.5835 32.4446 24.5246 33.4587 24.5246C34.4729 24.5246 35.1281 24.2721 35.1281 23.7275C35.1281 23.1828 35.6352 22.3523 33.6799 22.3523C31.7247 22.3523 31.2844 23.1494 31.8645 23.6565Z" fill="black"/>
</g>
<path d="M35.1259 23.185C35.1259 23.185 35.2052 24.6458 34.9631 25.326C34.7211 26.0063 34.3976 26.457 34.3976 26.7868C34.3976 27.1165 34.9235 27.515 34.9235 28.1598C34.9235 28.8046 33.7528 31.916 33.4294 32.5211C33.1059 33.1263 33.2207 33.3287 32.8242 33.3683C32.4278 33.408 31.4115 32.9259 31.4115 32.9259C31.4115 32.9259 30.8043 33.0052 30.725 33.2473C30.6457 33.4894 30.4412 34.3387 30.4412 34.3387L24.5461 31.7135C25.0866 31.1169 25.4992 30.416 25.7585 29.6539C26.1216 28.4833 25.5499 26.6657 25.5499 26.6657C25.5499 26.6657 24.9844 22.4276 27.5677 21.2152C30.1511 20.0028 33.9073 20.7707 34.5145 21.3779C35.1217 21.9852 35.1259 23.185 35.1259 23.185Z" stroke="#263238" stroke-width="0.208674" stroke-linecap="round" stroke-linejoin="round"/>
<path d="M30.2409 26.9411C30.2409 26.9411 31.2092 27.2228 31.3302 26.9411C31.4512 26.6594 31.0881 26.578 31.5389 26.4152C31.9896 26.2524 33.033 25.6076 33.033 24.9545C33.033 24.3013 31.8206 23.2183 32.4257 23.0556C33.0309 22.8928 34.8902 22.9763 34.8902 22.9763C34.8902 22.9763 33.5964 23.5814 34.2433 23.8631C34.8902 24.1448 36.4636 23.7838 37.0687 22.8949C37.6739 22.0059 36.8267 20.5995 35.656 19.8253C34.4853 19.0511 32.144 18.4126 29.8424 18.4939C27.5407 18.5753 25.8442 19.3829 25.36 20.7142C24.8759 22.0456 25.6438 26.7303 25.6835 27.9823C25.7231 29.2344 26.4911 29.5975 27.38 29.5975C28.269 29.5975 29.0348 28.8296 29.2372 28.1368C29.4396 27.444 29.5189 26.7637 29.6399 26.603C29.761 26.4423 30.2409 26.9411 30.2409 26.9411Z" fill="#263238" stroke="#263238" stroke-width="0.208674" stroke-linecap="round" stroke-linejoin="round"/>
<path d="M27.5552 26.7721C27.4075 26.9356 27.2423 27.0826 27.0627 27.2103" stroke="#707070" stroke-width="0.208674" stroke-linecap="round" stroke-linejoin="round"/>
<path d="M36.8309 21.5552C36.8309 21.5552 36.5617 21.96 35.4829 22.2292C34.404 22.4984 32.1149 21.3528 29.6212 22.4984C27.9247 23.2788 28.3525 24.4662 28.1167 25.6285" stroke="#707070" stroke-width="0.208674" stroke-linecap="round" stroke-linejoin="round"/>
<path d="M32.1149 23.569C32.1149 23.569 31.2385 23.7025 30.5645 24.8481C29.8904 25.9938 29.9593 27.7445 27.9373 28.285" stroke="#707070" stroke-width="0.208674" stroke-linecap="round" stroke-linejoin="round"/>
<path d="M29.8757 26.2545L35.6497 26.8597" stroke="#263238" stroke-width="0.208674" stroke-linecap="round" stroke-linejoin="round"/>
<path d="M30.6834 27.5462C30.6834 27.5462 30.7648 26.1335 30.241 25.4469C29.7172 24.7604 29.2707 25.2382 29.0286 26.6176C28.7865 27.9969 28.7865 28.7168 29.3103 28.913C29.6515 29.0261 30.0221 29.012 30.3537 28.8733" fill="white"/>
<path d="M30.6834 27.5462C30.6834 27.5462 30.7648 26.1335 30.241 25.4469C29.7172 24.7604 29.2707 25.2382 29.0286 26.6176C28.7865 27.9969 28.7865 28.7168 29.3103 28.913C29.6515 29.0261 30.0221 29.012 30.3537 28.8733" stroke="#263238" stroke-width="0.208674" stroke-linecap="round" stroke-linejoin="round"/>
<path d="M45.4031 64.2311C44.9169 63.7532 43.6336 62.6201 42.0205 62.2341C39.9546 61.7437 30.9024 60.7108 30.9024 60.7108L30.4579 58.889C30.4579 58.889 29.1787 58.4946 28.8845 58.4946C28.5903 58.4946 27.261 58.9391 24.3083 59.5776C21.3556 60.2162 16.0698 58.6511 16.0698 58.6511C15.6212 59.0269 15.2601 59.4961 15.0118 60.0259C14.7634 60.5558 14.6338 61.1335 14.6321 61.7186C14.6321 62.9707 14.7489 64.0141 14.8929 64.2227L45.4031 64.2311Z" fill="#263238" stroke="#263238" stroke-width="0.208674" stroke-linecap="round" stroke-linejoin="round"/>
<path d="M23.3361 32.5127L23.1879 32.6149C22.6203 33.0052 20.5252 34.4575 18.9351 35.7033C17.0779 37.164 16.9569 39.8622 16.8755 41.9635C16.7941 44.0649 15.4399 57.1341 15.1164 58.7493C14.793 60.3644 17.6831 60.7776 20.4689 61.1824C23.2547 61.5872 26.848 61.1427 28.5842 60.3352C30.3204 59.5276 30.7252 59.5673 30.7252 58.6783C30.7252 57.7894 30.7649 55.7715 30.7649 55.6108C30.7649 55.4501 32.0169 45.5569 31.9355 42.6501C31.8541 39.7432 32.0983 38.1678 31.4117 36.7133C30.7252 35.2588 28.989 34.1299 26.6874 33.362C24.3857 32.5941 23.3361 32.5127 23.3361 32.5127Z" fill="#040B5B"/>
<path d="M30.0907 38.3702C29.4083 36.9971 27.2089 34.4931 27.2089 34.4931C27.2089 34.4931 28.8783 33.9985 23.1899 32.615C22.6223 33.0052 20.5272 34.4576 18.9371 35.7034C17.0799 37.1641 16.9589 39.8622 16.8775 41.9636C16.7961 44.0649 15.4418 57.1342 15.1184 58.7493C14.7949 60.3644 17.6851 60.7776 20.4708 61.1824C21.2071 61.2854 21.9498 61.3356 22.6932 61.3327L30.8127 54.6697L30.8649 54.7386C31.084 52.8772 31.6078 48.4325 31.8331 45.2857C31.2468 42.5541 30.5623 39.3259 30.0907 38.3702Z" fill="#040B5B"/>
<path d="M20.5918 40.8972C20.5918 40.8972 20.9611 44.4822 22.6931 46.7693" stroke="#040B5B" stroke-width="0.208674" stroke-linecap="round" stroke-linejoin="round"/>
<path d="M25.7881 46.8925C25.7881 46.8925 26.1595 47.7585 28.0146 49.1879" stroke="#040B5B" stroke-width="0.208674" stroke-linecap="round" stroke-linejoin="round"/>
<path d="M24.3 49.4883C24.3 49.4883 26.2762 50.1686 28.1918 49.7971" stroke="#040B5B" stroke-width="0.208674" stroke-linecap="round" stroke-linejoin="round"/>
<path d="M23.6804 61.2929C23.6804 61.2929 27.76 59.1916 29.3668 57.1508" stroke="#040B5B" stroke-width="0.208674" stroke-linecap="round" stroke-linejoin="round"/>
<path d="M23.3361 32.5127L23.1879 32.6149C22.6203 33.0052 20.5252 34.4575 18.9351 35.7033C17.0779 37.164 16.9569 39.8622 16.8755 41.9635C16.7941 44.0649 15.4399 57.1341 15.1164 58.7493C14.793 60.3644 17.6831 60.7776 20.4689 61.1824C23.2547 61.5872 26.848 61.1427 28.5842 60.3352C30.3204 59.5276 30.7252 59.5673 30.7252 58.6783C30.7252 57.7894 30.7649 55.7715 30.7649 55.6108C30.7649 55.4501 32.0169 45.5569 31.9355 42.6501C31.8541 39.7432 32.0983 38.1678 31.4117 36.7133C30.7252 35.2588 28.989 34.1299 26.6874 33.362C24.3857 32.5941 23.3361 32.5127 23.3361 32.5127Z" stroke="white" stroke-width="0.208674" stroke-linecap="round" stroke-linejoin="round"/>
<path d="M23.7386 31.1396L22.6577 32.9572C22.6577 32.9572 25.9276 33.7251 27.6242 34.4179C29.3207 35.1107 31.589 36.922 31.589 36.922C31.589 36.922 31.2259 34.8623 30.9024 34.3386C30.579 33.8148 27.2277 32.0432 25.8546 31.511C24.4815 30.9789 23.7386 31.1396 23.7386 31.1396Z" fill="#C6FF00"/>
<mask id="mask1_615_2924" style="mask-type:luminance" maskUnits="userSpaceOnUse" x="22" y="31" width="10" height="6">
<path d="M23.7386 31.1396L22.6577 32.9572C22.6577 32.9572 25.9276 33.7251 27.6242 34.4179C29.3207 35.1107 31.589 36.922 31.589 36.922C31.589 36.922 31.2259 34.8623 30.9024 34.3386C30.579 33.8148 27.2277 32.0432 25.8546 31.511C24.4815 30.9789 23.7386 31.1396 23.7386 31.1396Z" fill="white"/>
</mask>
<g mask="url(#mask1_615_2924)">
<path opacity="0.4" d="M28.7802 34.9916C28.8565 34.9683 28.925 34.9244 28.978 34.8648C29.031 34.8051 29.0665 34.732 29.0807 34.6535C29.1976 33.6915 27.5699 32.3226 27.4864 32.2517C26.8479 31.9345 26.2532 31.6611 25.8379 31.5025C24.4669 30.9788 23.7386 31.1394 23.7386 31.1394L22.6577 32.957C22.6577 32.957 25.9276 33.7249 27.6242 34.4177C28.0217 34.5833 28.4079 34.775 28.7802 34.9916Z" fill="black"/>
</g>
<path d="M23.7386 31.1396L22.6577 32.9572C22.6577 32.9572 25.9276 33.7251 27.6242 34.4179C29.3207 35.1107 31.589 36.922 31.589 36.922C31.589 36.922 31.2259 34.8623 30.9024 34.3386C30.579 33.8148 27.2277 32.0432 25.8546 31.511C24.4815 30.9789 23.7386 31.1396 23.7386 31.1396Z" fill="#D9D9D9" stroke="#040B5B" stroke-width="0.208674" stroke-linecap="round" stroke-linejoin="round"/>
<path d="M43.1601 53.9935C43.1601 53.9935 44.2034 53.1045 44.6938 52.2156C45.1842 51.3266 45.5014 51.0866 45.8666 51.1722C46.0783 51.2206 46.2943 51.2479 46.5114 51.2536C46.5114 51.2536 47.8031 50.4857 48.2079 50.4064C48.6127 50.3271 49.4182 51.2932 49.4182 51.2932C49.4182 51.2932 50.7913 52.3366 50.6306 52.587C50.4699 52.8374 50.2258 52.708 50.0651 52.708C49.9044 52.708 49.5392 52.4242 49.3389 52.4994C49.1386 52.5745 48.2475 53.1442 48.2475 53.1442C48.2475 53.1442 49.2909 53.1442 49.581 53.2652C49.871 53.3862 50.9123 54.3086 50.712 54.4379C50.5117 54.5673 50.5033 54.5986 50.2675 54.559C49.9828 54.4576 49.7115 54.3216 49.4599 54.1541L48.3686 54.3628C48.3686 54.3628 49.0155 55.0494 49.2179 55.21C49.4203 55.3707 50.1861 55.6149 49.8627 55.8152C49.5392 56.0155 49.2972 55.9383 48.8944 55.6545C48.4917 55.3707 47.6027 54.9283 47.4337 54.9283C47.2647 54.9283 46.8286 55.4938 46.1024 55.7359C45.5095 55.8948 44.8986 55.9762 44.2848 55.9779L44.0762 56.1866L42.8658 54.7259L42.6238 54.5172L43.1601 53.9935Z" fill="white" stroke="#263238" stroke-width="0.208674" stroke-linecap="round" stroke-linejoin="round"/>
<path d="M49.4181 51.2871C49.4181 51.2871 49.055 51.0785 48.8129 51.2078C48.5709 51.3372 47.0371 52.2157 47.0371 52.2157" stroke="#263238" stroke-width="0.208674" stroke-linecap="round" stroke-linejoin="round"/>
<path d="M46.5113 51.2474L45.7852 51.7316" stroke="#263238" stroke-width="0.208674" stroke-linecap="round" stroke-linejoin="round"/>
<path d="M35.8918 54.6384C35.8918 54.6384 38.5565 54.5988 38.9614 54.3567C39.3662 54.1147 40.3344 53.4281 40.3741 53.1443C40.4137 52.8605 40.1654 52.7019 39.7689 52.8626C39.3725 53.0233 38.3082 53.4281 38.1538 53.4281C37.8656 53.3691 37.5824 53.2882 37.3066 53.1861C37.3066 53.1861 38.4772 52.1427 38.9614 51.8526C39.1588 51.7424 39.3811 51.6846 39.6072 51.6846C39.8333 51.6846 40.0556 51.7424 40.2531 51.8526C40.5369 52.0154 40.9792 51.4895 40.6162 51.2078C40.2514 50.9121 39.7939 50.7547 39.3245 50.7634C39.1307 50.7729 38.9397 50.8138 38.759 50.8844C38.759 50.8844 38.3145 50.1582 37.9931 50.2375C37.7815 50.2986 37.5876 50.4095 37.4276 50.5609C37.3133 50.5036 37.1859 50.477 37.0582 50.484C36.9305 50.4909 36.8068 50.5311 36.6993 50.6006C36.3363 50.8447 35.9732 50.924 35.5704 51.2475C35.1677 51.5709 33.9949 52.3368 33.8343 52.6205C33.6736 52.9043 35.8918 54.6384 35.8918 54.6384Z" fill="white" stroke="#263238" stroke-width="0.208674" stroke-linecap="round" stroke-linejoin="round"/>
<path d="M38.7592 50.8843L37.6282 51.5312" stroke="#263238" stroke-width="0.208674" stroke-linecap="round" stroke-linejoin="round"/>
<path d="M37.4277 50.5608L36.6201 51.1263" stroke="#263238" stroke-width="0.208674" stroke-linecap="round" stroke-linejoin="round"/>
<path d="M28.1813 40.8284C28.1813 40.8284 27.0503 42.3642 26.6872 43.5766C26.3241 44.789 26.7665 46.5231 26.8959 46.9279C27.0253 47.3327 33.4754 60.0493 34.1619 61.3013C34.8485 62.5534 35.6226 62.6327 36.1819 62.4324C36.7411 62.232 43.2476 57.587 43.4855 57.3449C43.7234 57.1028 44.8189 56.1742 44.8189 56.1742C44.8189 56.1742 45.0276 54.8805 44.1324 54.196C43.2371 53.5116 42.7989 53.8726 42.7989 53.8726L37.146 55.4063C37.146 55.4063 33.9574 44.4238 33.5985 42.3246C33.2396 40.2253 33.8072 40.3463 32.6699 39.2153C31.9042 38.4717 31.0652 37.8075 30.1658 37.2329" fill="#040B5B"/>
<path d="M28.1813 40.8284C28.1813 40.8284 27.0503 42.3642 26.6872 43.5766C26.3241 44.789 26.7665 46.5231 26.8959 46.9279C27.0253 47.3327 33.4754 60.0493 34.1619 61.3013C34.8485 62.5534 35.6226 62.6327 36.1819 62.4324C36.7411 62.232 43.2476 57.587 43.4855 57.3449C43.7234 57.1028 44.8189 56.1742 44.8189 56.1742C44.8189 56.1742 45.0276 54.8805 44.1324 54.196C43.2371 53.5116 42.7989 53.8726 42.7989 53.8726L37.146 55.4063C37.146 55.4063 33.9574 44.4238 33.5985 42.3246C33.2396 40.2253 33.8072 40.3463 32.6699 39.2153C31.9042 38.4717 31.0652 37.8075 30.1658 37.2329" stroke="white" stroke-width="0.208674" stroke-linecap="round" stroke-linejoin="round"/>
<path d="M42.0291 54.2356C42.0291 54.2356 43.8633 54.4672 43.9676 56.9004" stroke="#263238" stroke-width="0.208674" stroke-linecap="round" stroke-linejoin="round"/>
<path d="M22.3468 64.2311H23.2838C21.8481 61.5538 13.9331 46.7672 13.6639 46.0973C13.3697 45.3586 12.9273 45.3586 12.7792 45.054C12.631 44.7493 12.8292 43.4806 12.7792 42.6438C12.7291 41.807 10.0247 34.0339 9.28595 32.7547C8.54725 31.4756 7.40789 31.6216 7.40789 31.6216L7.11157 32.4104L11.7859 45.1541L22.3468 64.2311Z" fill="white" stroke="#263238" stroke-width="0.208674" stroke-linecap="round" stroke-linejoin="round"/>
<path d="M4.0253 45.9514C5.96805 50.4379 11.4833 62.9979 11.9424 64.2312H22.3448C21.124 62.0339 13.8664 48.9104 12.3284 44.7682C10.659 40.2421 8.04644 32.1726 7.4079 31.6217C6.76936 31.0708 3.57039 31.0813 2.29122 31.4757C1.01205 31.8701 0.961965 32.0161 1.01205 32.8529C1.06213 33.6897 2.09089 41.4795 4.0253 45.9514Z" fill="#263238" stroke="#263238" stroke-width="0.208674" stroke-linecap="round" stroke-linejoin="round"/>
<path d="M7.75 64.2311H82.9999" stroke="#263238" stroke-width="0.208674" stroke-linecap="round" stroke-linejoin="round"/>
</svg>
