<svg width="39" height="38" viewBox="0 0 39 38" fill="none" xmlns="http://www.w3.org/2000/svg">
<path d="M12.9968 25.3334H19.4968M12.9968 17.4167H25.9968" stroke="#040B5B" stroke-width="3" stroke-linecap="round"/>
<path d="M12.1875 5.54175C9.65932 5.61565 8.152 5.88982 7.10901 6.90702C5.68115 8.29955 5.68115 10.5408 5.68115 15.0233L5.68115 25.3246C5.68115 29.8071 5.68115 32.0483 7.10901 33.4409C8.53686 34.8334 10.835 34.8334 15.4312 34.8334L23.5561 34.8334C28.1523 34.8334 30.4504 34.8334 31.8783 33.4409C33.3062 32.0483 33.3062 29.8071 33.3062 25.3246V15.0233C33.3062 10.5408 33.3061 8.29956 31.8783 6.90702C30.8353 5.88982 29.328 5.61565 26.7998 5.54175" stroke="#040B5B" stroke-width="3"/>
<path d="M12.1812 5.93758C12.1812 4.40729 13.4543 3.16675 15.0249 3.16675H23.9624C25.533 3.16675 26.8062 4.40729 26.8062 5.93758C26.8062 7.46787 25.533 8.70841 23.9624 8.70841H15.0249C13.4543 8.70841 12.1812 7.46787 12.1812 5.93758Z" stroke="#040B5B" stroke-width="3" stroke-linejoin="round"/>
</svg>
