<svg width="39" height="51" viewBox="0 0 39 51" fill="none" xmlns="http://www.w3.org/2000/svg">
<path fill-rule="evenodd" clip-rule="evenodd" d="M0 45.9C0 48.7169 2.18237 51 4.875 51H34.125C36.8176 51 39 48.7169 39 45.9C39 41.9322 39 35.445 39 31.7373C39 29.2723 37.3149 27.1609 34.9976 26.7206C31.5624 26.0661 25.6393 24.939 22.2885 24.3032C20.4441 23.9513 18.5559 23.9513 16.7115 24.3032C13.3607 24.939 7.43762 26.0661 4.00237 26.7206C1.68512 27.1609 0 29.2723 0 31.7373V45.9ZM23.2505 27.9412L25.6896 37.6431C26.0097 38.9164 25.5808 40.2679 24.596 41.0907C23.764 41.7843 22.4526 42.8791 21.5426 43.6407C20.3483 44.6369 18.6517 44.6369 17.4574 43.6407C16.5474 42.8791 15.236 41.7843 14.404 41.0907C13.4192 40.2679 12.9903 38.9164 13.3104 37.6431L15.7495 27.9412L4.58412 30.0645C3.81225 30.2124 3.25 30.9162 3.25 31.7373V45.9C3.25 46.8384 3.978 47.6 4.875 47.6C11.674 47.6 27.326 47.6 34.125 47.6C35.022 47.6 35.75 46.8384 35.75 45.9C35.75 41.9322 35.75 35.445 35.75 31.7373C35.75 30.9162 35.1878 30.2124 34.4159 30.0645L23.2505 27.9412ZM19.7649 27.4431C19.5878 27.438 19.4122 27.438 19.2351 27.4431L16.4661 38.4625L19.4854 40.9819C19.4935 40.9904 19.5065 40.9904 19.5146 40.9819L22.5339 38.4625L19.7649 27.4431ZM19.5 0C13.6711 0 8.9375 4.9521 8.9375 11.05C8.9375 17.1479 13.6711 22.1 19.5 22.1C25.3289 22.1 30.0625 17.1479 30.0625 11.05C30.0625 4.9521 25.3289 0 19.5 0ZM19.5 3.4C23.5365 3.4 26.8125 6.8272 26.8125 11.05C26.8125 15.2728 23.5365 18.7 19.5 18.7C15.4635 18.7 12.1875 15.2728 12.1875 11.05C12.1875 6.8272 15.4635 3.4 19.5 3.4Z" fill="white"/>
</svg>
